<svg xmlns="http://www.w3.org/2000/svg" viewBox="0 0 72 36">
  <!-- Apple icon (simplified) -->
  <path d="M14 8 C14 8 17 4 21 5 C21 5 22 8 19 10 C16 12 13 10 14 8Z" fill="#111"/>
  <path d="M10 13 C7 13 4 16 4 20 C4 27 9 32 13 32 C15 32 16 31 18 31 C20 31 21 32 23 32 C27 32 32 27 32 20 C32 16 29 13 26 13 C24 13 22 14 21 14 C20 14 18 13 18 13 C16 13 14 13.5 12 13 C11.3 12.8 10.5 13 10 13Z" fill="#111"/>
  <!-- Wordmark -->
  <text x="36" y="27" font-family="'Helvetica Neue',Arial,sans-serif" font-size="22" font-weight="300" fill="#111">Apple</text>
</svg>
